<svg width="50" height="50" fill="none" xmlns="http://www.w3.org/2000/svg"><g clip-path="url(#clip0_48_163)"><path d="M34.342 24.95l12.814-11.133v22.14L34.342 24.95zm-16.513 1.886l4.5 3.906c.706.6 1.627.962 2.633.962h.063c1.008 0 1.93-.364 2.644-.968l-.006.004 4.5-3.906L45.842 38.58H4.156L17.83 26.836zM4.137 11.177h41.73L25.823 28.586a1.276 1.276 0 01-.792.275h-.056a1.28 1.28 0 01-.794-.277l.002.002L4.137 11.177zm-1.293 2.638l12.812 11.133-12.812 11V13.815zm45-5.086a3.836 3.836 0 00-1.71-.395H3.872c-.604 0-1.2.14-1.74.41l.023-.01A3.867 3.867 0 000 12.197v25.358a3.875 3.875 0 003.87 3.871h42.257a3.875 3.875 0 003.87-3.87V12.197a3.86 3.86 0 00-2.143-3.458l-.023-.01h.013z" fill="#80A1F7"/></g><defs><clipPath id="clip0_48_163"><path fill="#fff" d="M0 0h50v50H0z"/></clipPath></defs></svg>